<svg version="1.1" id="图层_1" xmlns="http://www.w3.org/2000/svg" xmlns:xlink="http://www.w3.org/1999/xlink" x="0px" y="0px" viewBox="1.0299999713897705 0.9989337921142578 97.93687438964844 89.01480102539062" enable-background="new 0 0 100 91" xml:space="preserve">
<path fill="#4ABA00" d="M90.93,77.9c-8.46,9.88-21.42,13.61-33.25,10.76c6.84-1.51,13.25-5.17,18.16-10.9
	c12.01-14.03,10.37-35.15-3.66-47.16c-4.15-3.55-8.93-5.9-13.9-7.1c9.91-2.19,20.7,0.13,29,7.24
	C101.3,42.76,102.94,63.87,90.93,77.9z"></path>
<ellipse transform="matrix(0.1832 -0.9831 0.9831 0.1832 3.7175 116.1553)" fill="#4ABA00" cx="71.76" cy="55.84" rx="9.58" ry="9.58"></ellipse>
<path fill="#359F1B" d="M86.44,48.06c5.04,14.1,1.18,29.22-8.66,39.22c-6.39,2.51-13.42,3-20.1,1.39
	c6.83-1.51,13.25-5.17,18.16-10.9c12.01-14.03,10.37-35.15-3.66-47.16c-2.93-2.51-6.18-4.41-9.58-5.73
	C73.31,28.38,82.35,36.62,86.44,48.06z"></path>
<path fill="#00A0EE" d="M1.03,82.97l9.39-14.89c-0.05-0.14-0.11-0.27-0.16-0.41C5.93,55.42,9.18,42.32,17.56,33.5
	c-2.11,6.68-2.15,14.07,0.36,21.18c6.15,17.42,25.25,26.55,42.67,20.41c5.16-1.82,9.58-4.78,13.1-8.49
	c-3.06,9.68-10.46,17.86-20.77,21.5c-12.92,4.56-26.77,0.7-35.57-8.7L1.03,82.97z"></path>
<ellipse transform="matrix(0.1832 -0.9831 0.9831 0.1832 -29.3933 88.9722)" fill="#00A0EE" cx="38.85" cy="62.18" rx="9.58" ry="9.58"></ellipse>
<path fill="#1681E5" d="M39.12,78.9c-15-2.32-26.5-13.09-30.49-26.76c0.94-6.93,3.99-13.48,8.72-18.68
	c-2.04,6.86-1.97,14.38,0.68,21.55c6.5,17.56,26.03,26.32,43.64,19.56c3.68-1.41,6.97-3.4,9.83-5.81
	C63.07,76.66,51.29,80.78,39.12,78.9z"></path>
<g>
	<path fill="#4ABA00" d="M59.22,1.57c12.78,2.38,22.5,11.75,25.95,23.42c-4.73-5.16-11.11-8.89-18.52-10.27
		c-18.16-3.38-35.62,8.59-39.01,26.75c-1,5.37-0.65,10.69,0.8,15.59c-6.86-7.49-10.23-17.99-8.23-28.74
		C23.6,10.16,41.06-1.81,59.22,1.57z"></path>
</g>
<path fill="#FFD100" d="M59.22,1.57c12.78,2.38,22.5,11.75,25.95,23.42c-4.73-5.16-11.11-8.89-18.52-10.27
	c-18.16-3.38-35.62,8.59-39.01,26.75c-1,5.37-0.65,10.69,0.8,15.59c-6.86-7.49-10.23-17.99-8.23-28.74
	C23.6,10.16,41.06-1.81,59.22,1.57z"></path>
<ellipse transform="matrix(0.1832 -0.9831 0.9831 0.1832 11.0823 73.109)" fill="#FFD100" cx="49.54" cy="29.89" rx="9.58" ry="9.58"></ellipse>
<path fill="#FDBC2D" d="M34.99,20.77C44.51,8.95,59.6,4.4,73.43,7.79c5.53,4.29,9.66,10.21,11.8,16.91
	c-4.91-5.2-11.46-8.92-18.99-10.21c-18.45-3.18-35.82,9.34-38.79,27.96c-0.62,3.89-0.55,7.73,0.1,11.42
	C24.92,42.62,27.27,30.36,34.99,20.77z"></path>
</svg>